<mxfile host="app.diagrams.net" modified="2020-08-05T02:46:54.733Z" agent="5.0 (Macintosh; Intel Mac OS X 10_15_5) AppleWebKit/537.36 (KHTML, like Gecko) Chrome/84.0.4147.89 Safari/537.36" etag="4O6quUfSMAb3Et-7mEOo" version="13.0.7" type="github">
  <diagram id="yft2D5UrmD5QOt89w7p9" name="Page-1">
    <mxGraphModel dx="1426" dy="733" grid="1" gridSize="10" guides="1" tooltips="1" connect="1" arrows="1" fold="1" page="1" pageScale="1" pageWidth="827" pageHeight="1169" math="0" shadow="0">
      <root>
        <mxCell id="0" />
        <mxCell id="1" parent="0" />
        <mxCell id="YAjy17ErYapmE2t35ORY-1" value="@kgs npm packages&lt;br&gt;" style="rounded=0;whiteSpace=wrap;html=1;verticalAlign=top;fontStyle=1" parent="1" vertex="1">
          <mxGeometry x="70" y="170" width="170" height="200" as="geometry" />
        </mxCell>
        <mxCell id="YAjy17ErYapmE2t35ORY-2" value="@kgs/collpase" style="rounded=0;whiteSpace=wrap;html=1;" parent="1" vertex="1">
          <mxGeometry x="95" y="210" width="120" height="40" as="geometry" />
        </mxCell>
        <mxCell id="YAjy17ErYapmE2t35ORY-3" value="..." style="rounded=0;whiteSpace=wrap;html=1;" parent="1" vertex="1">
          <mxGeometry x="95" y="310" width="120" height="40" as="geometry" />
        </mxCell>
        <mxCell id="YAjy17ErYapmE2t35ORY-4" value="@kgs/sticky" style="rounded=0;whiteSpace=wrap;html=1;" parent="1" vertex="1">
          <mxGeometry x="95" y="260" width="120" height="40" as="geometry" />
        </mxCell>
        <mxCell id="YAjy17ErYapmE2t35ORY-5" value="네이버 지식베이스" style="rounded=1;whiteSpace=wrap;html=1;verticalAlign=top;" parent="1" vertex="1">
          <mxGeometry x="260" y="30" width="490" height="250" as="geometry" />
        </mxCell>
        <mxCell id="YAjy17ErYapmE2t35ORY-6" value="라인 지식베이스" style="rounded=1;whiteSpace=wrap;html=1;verticalAlign=top;" parent="1" vertex="1">
          <mxGeometry x="250" y="410" width="510" height="320" as="geometry" />
        </mxCell>
        <mxCell id="YAjy17ErYapmE2t35ORY-7" value="" style="endArrow=classic;html=1;entryX=0;entryY=0.32;entryDx=0;entryDy=0;entryPerimeter=0;" parent="1" source="YAjy17ErYapmE2t35ORY-1" target="YAjy17ErYapmE2t35ORY-6" edge="1">
          <mxGeometry width="50" height="50" relative="1" as="geometry">
            <mxPoint x="380" y="420" as="sourcePoint" />
            <mxPoint x="430" y="370" as="targetPoint" />
          </mxGeometry>
        </mxCell>
        <mxCell id="YAjy17ErYapmE2t35ORY-8" value="npm modules 직접 사용" style="edgeLabel;html=1;align=center;verticalAlign=middle;resizable=0;points=[];" parent="YAjy17ErYapmE2t35ORY-7" vertex="1" connectable="0">
          <mxGeometry x="-0.5073" y="-4" relative="1" as="geometry">
            <mxPoint x="135.67000000000002" y="73.16" as="offset" />
          </mxGeometry>
        </mxCell>
        <mxCell id="YAjy17ErYapmE2t35ORY-24" value="" style="endArrow=classic;html=1;" parent="1" edge="1">
          <mxGeometry width="50" height="50" relative="1" as="geometry">
            <mxPoint x="240" y="210" as="sourcePoint" />
            <mxPoint x="280" y="180" as="targetPoint" />
          </mxGeometry>
        </mxCell>
        <mxCell id="YAjy17ErYapmE2t35ORY-26" value="네이버 지식베이스 전용&lt;br&gt;AU 서비스 모듈 그룹" style="rounded=0;whiteSpace=wrap;html=1;verticalAlign=top;" parent="1" vertex="1">
          <mxGeometry x="277.5" y="70" width="192.5" height="180" as="geometry" />
        </mxCell>
        <mxCell id="YAjy17ErYapmE2t35ORY-19" value="Templates1" style="rounded=0;whiteSpace=wrap;html=1;" parent="1" vertex="1">
          <mxGeometry x="290" y="130" width="120" height="50" as="geometry" />
        </mxCell>
        <mxCell id="YAjy17ErYapmE2t35ORY-20" value="Templates1" style="rounded=0;whiteSpace=wrap;html=1;" parent="1" vertex="1">
          <mxGeometry x="300" y="140" width="120" height="50" as="geometry" />
        </mxCell>
        <mxCell id="YAjy17ErYapmE2t35ORY-21" value="Templates1" style="rounded=0;whiteSpace=wrap;html=1;" parent="1" vertex="1">
          <mxGeometry x="310" y="150" width="120" height="50" as="geometry" />
        </mxCell>
        <mxCell id="YAjy17ErYapmE2t35ORY-22" value="Templates1" style="rounded=0;whiteSpace=wrap;html=1;" parent="1" vertex="1">
          <mxGeometry x="320" y="160" width="120" height="50" as="geometry" />
        </mxCell>
        <mxCell id="YAjy17ErYapmE2t35ORY-23" value="서비스 모듈" style="rounded=0;whiteSpace=wrap;html=1;" parent="1" vertex="1">
          <mxGeometry x="330" y="170" width="120" height="50" as="geometry" />
        </mxCell>
        <mxCell id="YAjy17ErYapmE2t35ORY-27" value="네이버 지식베이스 전용&lt;br&gt;Templates" style="rounded=0;whiteSpace=wrap;html=1;verticalAlign=top;" parent="1" vertex="1">
          <mxGeometry x="510" y="70" width="192.5" height="180" as="geometry" />
        </mxCell>
        <mxCell id="YAjy17ErYapmE2t35ORY-28" value="Templates1" style="rounded=0;whiteSpace=wrap;html=1;" parent="1" vertex="1">
          <mxGeometry x="522.5" y="130" width="120" height="50" as="geometry" />
        </mxCell>
        <mxCell id="YAjy17ErYapmE2t35ORY-29" value="Templates1" style="rounded=0;whiteSpace=wrap;html=1;" parent="1" vertex="1">
          <mxGeometry x="532.5" y="140" width="120" height="50" as="geometry" />
        </mxCell>
        <mxCell id="YAjy17ErYapmE2t35ORY-30" value="Templates1" style="rounded=0;whiteSpace=wrap;html=1;" parent="1" vertex="1">
          <mxGeometry x="542.5" y="150" width="120" height="50" as="geometry" />
        </mxCell>
        <mxCell id="YAjy17ErYapmE2t35ORY-31" value="Templates1" style="rounded=0;whiteSpace=wrap;html=1;" parent="1" vertex="1">
          <mxGeometry x="552.5" y="160" width="120" height="50" as="geometry" />
        </mxCell>
        <mxCell id="YAjy17ErYapmE2t35ORY-32" value="Template" style="rounded=0;whiteSpace=wrap;html=1;" parent="1" vertex="1">
          <mxGeometry x="562.5" y="170" width="120" height="50" as="geometry" />
        </mxCell>
        <mxCell id="YAjy17ErYapmE2t35ORY-33" value="" style="endArrow=classic;html=1;exitX=1;exitY=0.5;exitDx=0;exitDy=0;entryX=0;entryY=0.5;entryDx=0;entryDy=0;" parent="1" source="YAjy17ErYapmE2t35ORY-26" target="YAjy17ErYapmE2t35ORY-27" edge="1">
          <mxGeometry width="50" height="50" relative="1" as="geometry">
            <mxPoint x="320" y="410" as="sourcePoint" />
            <mxPoint x="370" y="360" as="targetPoint" />
          </mxGeometry>
        </mxCell>
        <mxCell id="YAjy17ErYapmE2t35ORY-34" value="라인 지식베이스 전용&lt;br&gt;Vue.js 서비스 모듈&amp;nbsp;" style="rounded=0;whiteSpace=wrap;html=1;verticalAlign=middle;" parent="1" vertex="1">
          <mxGeometry x="277.5" y="500" width="192.5" height="80" as="geometry" />
        </mxCell>
        <mxCell id="YAjy17ErYapmE2t35ORY-40" value="라인 지식베이스 전용&lt;br&gt;Templates" style="rounded=0;whiteSpace=wrap;html=1;verticalAlign=top;" parent="1" vertex="1">
          <mxGeometry x="510" y="500" width="192.5" height="180" as="geometry" />
        </mxCell>
        <mxCell id="YAjy17ErYapmE2t35ORY-41" value="Templates1" style="rounded=0;whiteSpace=wrap;html=1;" parent="1" vertex="1">
          <mxGeometry x="522.5" y="560" width="120" height="50" as="geometry" />
        </mxCell>
        <mxCell id="YAjy17ErYapmE2t35ORY-42" value="Templates1" style="rounded=0;whiteSpace=wrap;html=1;" parent="1" vertex="1">
          <mxGeometry x="532.5" y="570" width="120" height="50" as="geometry" />
        </mxCell>
        <mxCell id="YAjy17ErYapmE2t35ORY-43" value="Templates1" style="rounded=0;whiteSpace=wrap;html=1;" parent="1" vertex="1">
          <mxGeometry x="542.5" y="580" width="120" height="50" as="geometry" />
        </mxCell>
        <mxCell id="YAjy17ErYapmE2t35ORY-44" value="Templates1" style="rounded=0;whiteSpace=wrap;html=1;" parent="1" vertex="1">
          <mxGeometry x="552.5" y="590" width="120" height="50" as="geometry" />
        </mxCell>
        <mxCell id="YAjy17ErYapmE2t35ORY-45" value="Template" style="rounded=0;whiteSpace=wrap;html=1;" parent="1" vertex="1">
          <mxGeometry x="562.5" y="600" width="120" height="50" as="geometry" />
        </mxCell>
        <mxCell id="YAjy17ErYapmE2t35ORY-46" value="" style="endArrow=classic;html=1;exitX=1;exitY=0.5;exitDx=0;exitDy=0;entryX=0;entryY=0.5;entryDx=0;entryDy=0;" parent="1" source="YAjy17ErYapmE2t35ORY-34" target="YAjy17ErYapmE2t35ORY-40" edge="1">
          <mxGeometry width="50" height="50" relative="1" as="geometry">
            <mxPoint x="320" y="840" as="sourcePoint" />
            <mxPoint x="370" y="790" as="targetPoint" />
          </mxGeometry>
        </mxCell>
      </root>
    </mxGraphModel>
  </diagram>
</mxfile>
